<?xml version="1.0" encoding="UTF-8"?>
<svg version="1.1" xmlns="http://www.w3.org/2000/svg" width="1024" height="1024">
<path d="M0 0 C4.31945683 3.08532631 7.59664349 6.91580237 9.625 11.875 C10.52104147 18.47741084 10.44424398 24.59004604 6.41796875 30.09375 C3.54936001 32.94360966 0.21342598 34.84146088 -3.2578125 36.8828125 C-8.02225078 39.92775426 -12.17221918 43.61960776 -16.4296875 47.32421875 C-18.22507471 48.8791098 -20.05554177 50.39602361 -21.94140625 51.83984375 C-40.14563093 67.06360147 -51.46120717 93.75806879 -54 116.8671875 C-55.96420424 140.04796921 -53.45722665 163.01717947 -42.42578125 183.81640625 C-41.375 185.875 -41.375 185.875 -40.375 188.875 C-40.375 184.61548004 -41.2453413 182.14049062 -42.75 178.1875 C-46.52633384 168.26082127 -47.73958256 159.40162801 -47.6875 148.75 C-47.68186035 147.55020508 -47.6762207 146.35041016 -47.67041016 145.11425781 C-47.25055169 114.41054825 -32.16567505 87.0567709 -10.72998047 65.74169922 C18.27368938 37.86412517 56.47223122 27.38245846 95.85131836 27.63867188 C102.20451556 27.77198106 108.54035934 28.19953051 114.875 28.6875 C115.85227051 28.75743164 116.82954102 28.82736328 117.83642578 28.89941406 C123.78892396 29.41972646 128.72605495 30.1688589 133.26953125 34.41015625 C137.12210918 39.44814277 137.82996218 42.31913189 137.875 48.5625 C137.9059375 49.60567383 137.9059375 49.60567383 137.9375 50.66992188 C137.97575474 55.79127465 137.13487951 59.37648006 134.625 63.875 C128.83396323 68.09225183 120.39250023 67.17946831 113.625 66.875 C112.7906543 66.83826172 111.95630859 66.80152344 111.09667969 66.76367188 C109.19332608 66.67978851 107.29000693 66.59512058 105.38671875 66.50976562 C100.46648113 66.28959935 95.54607162 66.07571634 90.625 65.875 C89.87637695 65.84341797 89.12775391 65.81183594 88.35644531 65.77929688 C59.54419259 64.70142843 31.53593705 72.79798641 10.0625 92.5625 C8.22797858 94.3126063 6.42634095 96.09026127 4.625 97.875 C3.96113281 98.48988281 3.29726563 99.10476563 2.61328125 99.73828125 C-2.47888398 104.53292671 -6.39013373 110.15128299 -10.375 115.875 C-9.199375 114.885 -9.199375 114.885 -8 113.875 C-5.375 111.875 -5.375 111.875 -3.375 111.875 C-3.375 111.215 -3.375 110.555 -3.375 109.875 C16.05835956 91.97235026 43.04738535 83.76558244 69.19921875 84.5859375 C92.95445123 85.86304284 114.74933264 92.72727172 134.625 105.875 C135.49898437 106.4525 136.37296875 107.03 137.2734375 107.625 C143.65148112 111.97092247 149.97906586 116.60474589 155.625 121.875 C155.625 122.535 155.625 123.195 155.625 123.875 C156.49125 124.24431641 156.49125 124.24431641 157.375 124.62109375 C171.00553451 132.21727704 181.56084694 153.14884872 187.625 166.875 C187.94952148 167.59413574 188.27404297 168.31327148 188.60839844 169.05419922 C192.42830797 177.5638099 195.9294851 186.14610986 198.6875 195.0625 C198.9035791 195.7325708 199.1196582 196.4026416 199.34228516 197.09301758 C201.00162275 202.79083761 200.90543691 207.68448985 198.6796875 213.23046875 C195.39674178 218.32881824 191.61217212 222.63542372 185.65234375 224.48828125 C179.48693146 225.66434255 174.92684642 225.29174547 169.625 221.875 C165.32345482 218.17846349 163.7463716 215.25231707 162.25 209.8125 C161.83497263 208.38455847 161.41685177 206.95751344 160.99609375 205.53125 C160.77679199 204.77714844 160.55749023 204.02304687 160.33154297 203.24609375 C152.13096023 175.72568616 138.43202819 149.76763269 113.625 133.875 C112.51318359 133.02035156 112.51318359 133.02035156 111.37890625 132.1484375 C92.30573385 117.54604244 68.82336741 115.19689122 45.625 114.875 C46.82253906 115.09414063 48.02007813 115.31328125 49.25390625 115.5390625 C63.84410572 118.330912 77.24720408 122.31699607 89.625 130.875 C90.81802734 131.69871094 90.81802734 131.69871094 92.03515625 132.5390625 C102.52418444 140.35180933 111.77123464 151.16746929 117.625 162.875 C118.0883374 163.79394043 118.0883374 163.79394043 118.56103516 164.73144531 C127.12159053 181.98356408 131.73096627 199.58490086 131.625 218.875 C131.62226074 219.61991699 131.61952148 220.36483398 131.61669922 221.13232422 C131.28004601 249.588702 120.16459856 277.60037674 102.625 299.875 C101.57699219 301.22851562 101.57699219 301.22851562 100.5078125 302.609375 C90.37828672 315.37041459 79.07221766 324.96611479 65.83691406 334.3125 C63.90960284 335.67395605 61.99656509 337.05282542 60.0859375 338.4375 C52.12929654 344.02976445 44.58763572 348.07836257 34.65234375 346.3671875 C28.23756424 344.80984218 25.15619203 341.84193353 21.76171875 336.3359375 C19.26177767 330.92369392 20.2034946 325.80762398 21.625 320.1875 C24.60135297 312.25055874 32.70565879 309.2390074 39.7578125 305.5078125 C44.67707077 302.70638204 49.11846423 299.28738444 53.625 295.875 C54.38167969 295.32457031 55.13835937 294.77414062 55.91796875 294.20703125 C59.82983582 291.35202883 63.27647509 288.39524413 66.625 284.875 C67.14288086 284.38427002 67.66076172 283.89354004 68.19433594 283.38793945 C72.63975334 279.14293022 76.04463016 274.69097598 79.3125 269.5 C79.77205078 268.79617188 80.23160156 268.09234375 80.70507812 267.3671875 C83.88368575 262.39749569 86.37613359 257.32278539 88.625 251.875 C88.89675049 251.23111328 89.16850098 250.58722656 89.44848633 249.92382812 C99.170017 226.50140797 100.7832355 202.6300567 91.39453125 178.71875 C91.14058594 178.1103125 90.88664063 177.501875 90.625 176.875 C90.769375 177.65101563 90.91375 178.42703125 91.0625 179.2265625 C94.87145728 201.39257778 90.89232045 219.69619201 78.94921875 238.515625 C76.2240342 242.31820809 73.31818336 244.99251543 69.625 247.875 C68.56860156 249.11257496 67.52863295 250.36425272 66.5 251.625 C51.99564009 268.43262736 24.48555115 279.64255995 2.75268555 281.48266602 C-21.36876239 283.09629816 -43.57255192 279.56531109 -65.34082031 268.8671875 C-67.26304019 267.9296093 -69.19984115 267.03739024 -71.1484375 266.15625 C-82.82575061 260.69137057 -92.22580419 253.07750523 -101.66796875 244.37109375 C-103.31689969 242.79854805 -103.31689969 242.79854805 -105.375 241.875 C-105.375 241.215 -105.375 240.555 -105.375 239.875 C-106.035 239.875 -106.695 239.875 -107.375 239.875 C-107.375 239.215 -107.375 238.555 -107.375 237.875 C-108.035 237.875 -108.695 237.875 -109.375 237.875 C-111.18905046 235.78718737 -112.88626999 233.69469512 -114.5625 231.5 C-115.30560425 230.53489502 -115.30560425 230.53489502 -116.0637207 229.55029297 C-117.50850106 227.66424153 -118.94218545 225.77014715 -120.375 223.875 C-121.035 223.0190625 -121.695 222.163125 -122.375 221.28125 C-132.59373716 207.46703125 -146.52436149 183.40276276 -145.375 165.875 C-144.20772949 159.2799216 -141.67930523 155.37994192 -136.4140625 151.25390625 C-131.54533935 147.96145554 -127.38016091 147.43104491 -121.6796875 148.28515625 C-116.89553262 149.50957555 -112.97106985 151.67063983 -110.03808594 155.72143555 C-107.16032863 160.85526399 -105.32912351 165.878377 -103.75268555 171.5402832 C-95.88957775 199.73592231 -76.79360614 222.22930319 -51.453125 236.76660156 C-29.90782436 248.25810355 -3.25840304 251.84585076 20.625 245.875 C25.74475336 244.16188941 30.69619309 242.07018291 35.625 239.875 C34.16707031 240.308125 34.16707031 240.308125 32.6796875 240.75 C24.13854165 243.11278034 16.06271652 244.26211427 7.1875 244.25 C5.84051025 244.25193359 5.84051025 244.25193359 4.46630859 244.25390625 C-16.60475949 243.91223424 -36.7096438 233.57841371 -52.375 219.875 C-53.42494141 218.96621094 -53.42494141 218.96621094 -54.49609375 218.0390625 C-77.15611437 196.95433744 -89.07740882 165.2833035 -90.51855469 134.84277344 C-91.52668327 102.83219569 -84.01041396 70.69789413 -64.375 44.875 C-62.50056341 42.12582633 -60.6419734 39.36655147 -58.78515625 36.60546875 C-58.31980469 36.03441406 -57.85445313 35.46335937 -57.375 34.875 C-56.715 34.875 -56.055 34.875 -55.375 34.875 C-55.14039063 34.32457031 -54.90578125 33.77414062 -54.6640625 33.20703125 C-50.28514884 25.28517836 -42.34167945 18.52302823 -35.375 12.875 C-34.84825684 12.44123047 -34.32151367 12.00746094 -33.77880859 11.56054688 C-31.96523236 10.07119939 -30.14067185 8.59638502 -28.3125 7.125 C-27.73467773 6.65255859 -27.15685547 6.18011719 -26.56152344 5.69335938 C-18.53228379 -0.67355896 -10.06025118 -3.35341706 0 0 Z M2.2265625 151.8984375 C-5.5620685 161.51074795 -7.33893255 171.87205909 -6.375 183.875 C-5.4552296 187.17759528 -4.13043396 189.94117785 -2.375 192.875 C-1.776875 193.926875 -1.17875 194.97875 -0.5625 196.0625 C4.6886644 202.81399709 11.05953928 207.47859301 19.625 208.875 C31.39525649 209.57309797 38.67297954 208.31700246 48.1328125 201.09765625 C51.52600285 198.07144103 53.69168264 194.96233305 55.625 190.875 C56.24375 189.575625 56.24375 189.575625 56.875 188.25 C60.04708636 178.20505987 59.07270598 168.83868336 54.44140625 159.484375 C49.72091869 151.62135323 42.51087851 146.20590163 33.625 143.875 C22.0148865 142.83057556 11.19997649 143.60547197 2.2265625 151.8984375 Z " fill="#96B6D1" transform="translate(487.375,334.125)"/>
<path d="M0 0 C4.31945683 3.08532631 7.59664349 6.91580237 9.625 11.875 C10.52104147 18.47741084 10.44424398 24.59004604 6.41796875 30.09375 C3.54936001 32.94360966 0.21342598 34.84146088 -3.2578125 36.8828125 C-8.02225078 39.92775426 -12.17221918 43.61960776 -16.4296875 47.32421875 C-18.22507471 48.8791098 -20.05554177 50.39602361 -21.94140625 51.83984375 C-40.14563093 67.06360147 -51.46120717 93.75806879 -54 116.8671875 C-55.96420424 140.04796921 -53.45722665 163.01717947 -42.42578125 183.81640625 C-41.375 185.875 -41.375 185.875 -40.375 188.875 C-39.611875 188.895625 -38.84875 188.91625 -38.0625 188.9375 C-37.175625 189.246875 -36.28875 189.55625 -35.375 189.875 C-34.69703618 191.46821497 -34.03306954 193.06916135 -33.44921875 194.69921875 C-30.47142114 200.73061246 -24.83879256 206.04163301 -19.375 209.875 C-20.1175 208.84375 -20.86 207.8125 -21.625 206.75 C-25.27574409 200.95236946 -26.76643498 194.47484764 -28.375 187.875 C-28.56964844 187.09125 -28.76429688 186.3075 -28.96484375 185.5 C-30.54813838 175.36691434 -30.0195814 164.67980136 -27.5625 154.75 C-27.3972583 154.0696167 -27.2320166 153.3892334 -27.06176758 152.68823242 C-26.54296875 150.8046875 -26.54296875 150.8046875 -25.375 147.875 C-24.385 147.545 -23.395 147.215 -22.375 146.875 C-21.01961499 145.28046888 -21.01961499 145.28046888 -19.75 143.3125 C-9.31307569 128.98730977 6.69489415 121.60721469 23.62890625 117.9765625 C24.28761719 117.94304687 24.94632813 117.90953125 25.625 117.875 C26.285 118.535 26.945 119.195 27.625 119.875 C29.30268613 120.29755935 30.98346942 120.71119756 32.67700195 121.06494141 C52.33965221 125.19152753 67.64344748 135.52749714 78.71875 152.43359375 C81.49027514 157.43710533 81.85748601 161.25658802 81.625 166.875 C81.66882813 167.96425781 81.71265625 169.05351562 81.7578125 170.17578125 C82.40988327 189.71616868 75.73845273 205.53216108 62.625 219.875 C61.635 220.96941406 61.635 220.96941406 60.625 222.0859375 C55.81319973 227.14996924 50.44409592 231.0442472 44.625 234.875 C43.72007812 235.5453125 42.81515625 236.215625 41.8828125 236.90625 C27.01629323 245.89033359 5.45875024 246.08302328 -11.06640625 242.46166992 C-26.12920405 238.63384599 -40.72997097 230.06159572 -52.375 219.875 C-53.07496094 219.26914062 -53.77492188 218.66328125 -54.49609375 218.0390625 C-77.15611437 196.95433744 -89.07740882 165.2833035 -90.51855469 134.84277344 C-91.52668327 102.83219569 -84.01041396 70.69789413 -64.375 44.875 C-62.50056341 42.12582633 -60.6419734 39.36655147 -58.78515625 36.60546875 C-58.31980469 36.03441406 -57.85445313 35.46335937 -57.375 34.875 C-56.715 34.875 -56.055 34.875 -55.375 34.875 C-55.14039063 34.32457031 -54.90578125 33.77414062 -54.6640625 33.20703125 C-50.28514884 25.28517836 -42.34167945 18.52302823 -35.375 12.875 C-34.84825684 12.44123047 -34.32151367 12.00746094 -33.77880859 11.56054688 C-31.96523236 10.07119939 -30.14067185 8.59638502 -28.3125 7.125 C-27.73467773 6.65255859 -27.15685547 6.18011719 -26.56152344 5.69335938 C-18.53228379 -0.67355896 -10.06025118 -3.35341706 0 0 Z M2.2265625 151.8984375 C-5.5620685 161.51074795 -7.33893255 171.87205909 -6.375 183.875 C-5.4552296 187.17759528 -4.13043396 189.94117785 -2.375 192.875 C-1.776875 193.926875 -1.17875 194.97875 -0.5625 196.0625 C4.6886644 202.81399709 11.05953928 207.47859301 19.625 208.875 C31.39525649 209.57309797 38.67297954 208.31700246 48.1328125 201.09765625 C51.52600285 198.07144103 53.69168264 194.96233305 55.625 190.875 C56.24375 189.575625 56.24375 189.575625 56.875 188.25 C60.04708636 178.20505987 59.07270598 168.83868336 54.44140625 159.484375 C49.72091869 151.62135323 42.51087851 146.20590163 33.625 143.875 C22.0148865 142.83057556 11.19997649 143.60547197 2.2265625 151.8984375 Z " fill="#96B6D1" transform="translate(487.375,334.125)"/>
<path d="M0 0 C1.73896011 0.41228866 3.47912843 0.82092828 5.2277832 1.18994141 C24.80455526 5.40167723 40.05111749 15.70236688 51.09375 32.55859375 C53.86527514 37.56210533 54.23248601 41.38158802 54 47 C54.04382813 48.08925781 54.08765625 49.17851562 54.1328125 50.30078125 C54.78404053 69.8159145 48.13374064 85.68906996 35 100 C32.71977135 102.39319411 30.40596571 104.73328633 28 107 C27.34 106.67 26.68 106.34 26 106 C23.74636417 106.7190589 21.52033364 107.52565274 19.3125 108.375 C3.51851051 114.44830638 -11.81131775 112.21931419 -27.11328125 105.45703125 C-31.98627885 102.9974533 -36.47994498 100.04739193 -41 97 C-41.98226563 96.40832031 -41.98226563 96.40832031 -42.984375 95.8046875 C-46.87713841 93.45049248 -46.87713841 93.45049248 -47.50390625 91.15234375 C-47.66761719 90.44207031 -47.83132813 89.73179687 -48 89 C-48.74555348 87.56986767 -49.51947572 86.15436497 -50.3125 84.75 C-58.80692202 67.83523523 -59.14111348 48.9339671 -54.16796875 30.9296875 C-53.78253906 29.96289062 -53.39710938 28.99609375 -53 28 C-52.01 27.67 -51.02 27.34 -50 27 C-48.64461499 25.40546888 -48.64461499 25.40546888 -47.375 23.4375 C-38.66937508 11.48860305 -25.93806367 4.30345745 -12 0 C-11.23300781 -0.24878906 -10.46601563 -0.49757813 -9.67578125 -0.75390625 C-5.43626098 -1.99990204 -3.80328007 -1.94493482 0 0 Z M-25.3984375 32.0234375 C-33.1870685 41.63574795 -34.96393255 51.99705909 -34 64 C-33.0802296 67.30259528 -31.75543396 70.06617785 -30 73 C-29.401875 74.051875 -28.80375 75.10375 -28.1875 76.1875 C-22.9363356 82.93899709 -16.56546072 87.60359301 -8 89 C3.77025649 89.69809797 11.04797954 88.44200246 20.5078125 81.22265625 C23.90100285 78.19644103 26.06668264 75.08733305 28 71 C28.61875 69.700625 28.61875 69.700625 29.25 68.375 C32.42208636 58.33005987 31.44770598 48.96368336 26.81640625 39.609375 C22.09591869 31.74635323 14.88587851 26.33090163 6 24 C-5.6101135 22.95557556 -16.42502351 23.73047197 -25.3984375 32.0234375 Z " fill="#24487A" transform="translate(515,454)"/>
<path d="M0 0 C0.47308594 0.44601562 0.94617188 0.89203125 1.43359375 1.3515625 C1.43359375 2.3415625 1.43359375 3.3315625 1.43359375 4.3515625 C0.64984375 3.7121875 -0.13390625 3.0728125 -0.94140625 2.4140625 C-5.78199029 -1.38925353 -9.94077321 -1.16921257 -16 -1.11328125 C-20.64179875 -0.50827134 -22.91009735 0.85277643 -26.0703125 4.23046875 C-28.97585855 8.34981994 -30.66863363 12.2546742 -30.5 17.36328125 C-28.79864174 26.76552424 -24.5543411 36.79202291 -20.12890625 45.2265625 C-19.61328125 46.2578125 -19.09765625 47.2890625 -18.56640625 48.3515625 C-18.89640625 49.0115625 -19.22640625 49.6715625 -19.56640625 50.3515625 C-35.09674752 20.67820574 -35.09674752 20.67820574 -31.56640625 8.8515625 C-29.28125111 2.51594281 -24.48831155 -1.15640075 -18.62890625 -4.1484375 C-11.39740608 -5.32909059 -6.13733996 -3.90014196 0 0 Z " fill="#E7EEF0" transform="translate(374.56640625,486.6484375)"/>
<path d="M0 0 C3.79366002 3.79366002 4.80295055 9.96969903 5.14453125 15.22265625 C4.69353121 21.35381899 1.75388002 26.51103461 -2.74609375 30.578125 C-8.16294199 34.63202432 -13.18897762 35.72457685 -20 35 C-24.68239485 33.25557839 -27.76224871 30.79279437 -31 27 C-31.8125 24.6875 -31.8125 24.6875 -32 23 C-31.2575 23.763125 -30.515 24.52625 -29.75 25.3125 C-24.41941108 30.52193917 -20.70742879 32.28270312 -13.2890625 32.234375 C-10.09802656 31.90764777 -7.74095817 30.60446332 -5 29 C-4.34 29 -3.68 29 -3 29 C-2.731875 28.46375 -2.46375 27.9275 -2.1875 27.375 C-1 25 -1 25 0.6875 22.5 C2.66035203 17.23906125 1.73947709 12.48384496 1 7 C0.90074219 6.23042969 0.80148437 5.46085938 0.69921875 4.66796875 C0.48649687 3.10906658 0.24719678 1.55380833 0 0 Z " fill="#EAF0F1" transform="translate(683,524)"/>
<path d="M0 0 C0 0.33 0 0.66 0 1 C-15.18 1 -30.36 1 -46 1 C-34.76733352 -6.48844432 -12.78415056 -1.92708595 0 0 Z " fill="#E8EFF2" transform="translate(600,399)"/>
<path d="M0 0 C0.66 0.33 1.32 0.66 2 1 C1.27683594 1.58394531 1.27683594 1.58394531 0.5390625 2.1796875 C-3.96675575 6.17055509 -6.14813428 9.43213433 -6.98046875 15.44140625 C-7.0252261 21.30461934 -5.25953179 25.55614648 -1.4375 29.9375 C-0.633125 30.618125 0.17125 31.29875 1 32 C1.66 32.66 2.32 33.32 3 34 C0.875 34 0.875 34 -2 33 C-6.80782657 27.76660027 -9.3251821 23.60630865 -9.2109375 16.51171875 C-8.80398738 11.66599783 -7.82033544 6.98708373 -4.46484375 3.32421875 C-2.8125 1.9375 -2.8125 1.9375 0 0 Z " fill="#E5ECEF" transform="translate(517,645)"/>
<path d="M0 0 C0.66 0.33 1.32 0.66 2 1 C1.11441406 1.74121094 0.22882813 2.48242188 -0.68359375 3.24609375 C-10.9964543 11.97972275 -20.56117505 21.33465719 -30 31 C-30 28 -30 28 -28.609375 26.3515625 C-27.99578125 25.78179687 -27.3821875 25.21203125 -26.75 24.625 C-24.66410516 22.63486481 -22.83352208 20.78518978 -21.0625 18.5 C-15.16390202 11.35018426 -7.16573371 5.80898634 0 0 Z " fill="#E1ECF1" transform="translate(463,338)"/>
<path d="M0 0 C0.33 0 0.66 0 1 0 C1.3459973 5.65128923 0.68154755 9.11575268 -2 14 C-4.90437929 16.22669079 -7.41271283 16.19929373 -11 16 C-10.278125 15.46375 -9.55625 14.9275 -8.8125 14.375 C-4.70748772 10.90854519 -1.47018841 7.95309031 -0.1875 2.625 C-0.125625 1.75875 -0.06375 0.8925 0 0 Z " fill="#E5E9EB" transform="translate(624,384)"/>
</svg>
